# xmcd
#
# Track frame offsets: 
#        150
#        15366
#        30493
#        42402
#        52204
#        67145
#        84240
#        96652
#        111787
#        127814
#        144224
#        158092
#        172026
#        187071
#        208978
#        221262
#        232727
#        251372
#        266776
#        279046
#        295051
#        309652
#
# Disc length: 4387 seconds
#
# Revision: 1
# Processed by: cddbd v1.5.2PL0 Copyright (c) Steve Scherf et al.
# Submitted via: ExactAudioCopyFreeDBPlugin 1.0
#
DISCID=39112116
DTITLE=George Jackson - What Would Your Mama Say?
DYEAR=2005
DGENRE=Soul
TTITLE0=Without You
TTITLE1=Sweet Woman's Love
TTITLE2=Fallin' Back in Love
TTITLE3=Make You Feel Love Again
TTITLE4=What Would Your Mama Say
TTITLE5=I Know She Misses Me
TTITLE6=Lovin' You
TTITLE7=Till I Find Some Way
TTITLE8=As Long as I Can Count on Your Love
TTITLE9=Feed the Hunger for the Night
TTITLE10=I Wish I Could Be Your Lover
TTITLE11=You're in Love
TTITLE12=Song and Dance Man
TTITLE13=A Little Taste of Outside Love
TTITLE14=Love Vibrations
TTITLE15=Another Woman Involved
TTITLE16=Just Can't Make It Without You
TTITLE17=New York Woman
TTITLE18=All That Time We Could Have Been in Love
TTITLE19=The Only Way is Up (radio edit)
TTITLE20=No Mess Off Nobody
TTITLE21=In Between Drinks
EXTD=
EXTT0=
EXTT1=
EXTT2=
EXTT3=
EXTT4=
EXTT5=
EXTT6=
EXTT7=
EXTT8=
EXTT9=
EXTT10=
EXTT11=
EXTT12=
EXTT13=
EXTT14=
EXTT15=
EXTT16=
EXTT17=
EXTT18=
EXTT19=
EXTT20=
EXTT21=
PLAYORDER=
